<svg width="51" height="50" viewBox="0 0 51 50" fill="none" xmlns="http://www.w3.org/2000/svg">
<path d="M36.1432 32.556C39.002 29.0129 40.5556 24.6328 40.5556 20.0281C40.5556 8.98478 31.5714 0 20.5281 0C9.48422 0 0.5 8.98478 0.5 20.0281C0.5 31.0675 9.48422 40.0512 20.5281 40.0512C25.203 40.0512 29.631 38.4579 33.2036 35.5251L47.5331 49.9861L50.5 47.0493L36.1432 32.556ZM20.5281 37.9642C10.6344 37.9642 2.58807 29.9184 2.58807 20.0281C2.58807 10.1344 10.6344 2.08863 20.5281 2.08863C30.4173 2.08863 38.4681 10.1344 38.4681 20.0281C38.4681 29.9184 30.4173 37.9642 20.5281 37.9642Z" fill="black"/>
<path d="M26.899 25.2385L21.6757 19.9829L26.8951 14.7809L25.7594 13.6412L20.5395 18.8422L15.3145 13.5889L14.1738 14.7235L19.3971 19.9796L14.1772 25.1805L15.3123 26.3201L20.5333 21.1186L25.7582 26.3725L26.899 25.2385Z" fill="black"/>
</svg>
